<svg width="218" height="195" viewBox="0 0 218 195" fill="none" xmlns="http://www.w3.org/2000/svg">
<g filter="url(#filter0_d_204_3743)">
<path d="M195.573 95.0341C209.451 80.2062 213.851 57.2115 206.429 38.3076C199.007 19.4036 180.137 5.54541 159.878 4.12056C129.171 1.96058 97.2106 31.0723 95.9393 61.8316C95.6283 69.354 97.6982 77.8855 104.238 81.6159C110.325 85.0879 118.633 82.866 123.199 77.5503C127.765 72.2347 128.914 64.5728 127.475 57.7145C126.036 50.8562 122.293 44.6905 117.995 39.1558C103.487 20.4732 83.3632 2.34508 58.1217 4.12056C37.8632 5.54577 18.9931 19.4036 11.5709 38.3076C4.14861 57.2115 8.54928 80.2062 22.4266 95.0341" stroke="#FF642F" stroke-width="6.18942" stroke-miterlimit="10" stroke-linecap="round" stroke-linejoin="round"/>
<path d="M137.79 159.779L117.257 179.754C112.738 184.15 105.496 183.986 101.181 179.389C95.3888 173.217 87.5972 165.025 82.2056 159.779" stroke="#FF642F" stroke-width="6.18942" stroke-miterlimit="10" stroke-linecap="round" stroke-linejoin="round"/>
<path d="M64.1721 140.632C72.6964 132.69 70.608 116.594 59.5075 104.679C48.407 92.7642 32.498 89.5435 23.9737 97.4853C15.4494 105.427 17.5378 121.524 28.6383 133.439C39.7388 145.353 55.6478 148.574 64.1721 140.632Z" stroke="#FF642F" stroke-width="6.18942" stroke-miterlimit="10" stroke-linecap="round" stroke-linejoin="round"/>
<path d="M191.221 101.035L162.85 134.015" stroke="#FF642F" stroke-width="6.18942" stroke-miterlimit="10" stroke-linecap="round" stroke-linejoin="round"/>
<path d="M151.73 119.117L173.102 96.4805C183.807 86.9033 209.789 106.548 198.144 121.745L176.982 144.16" stroke="#FF642F" stroke-width="6.18942" stroke-miterlimit="10" stroke-linecap="round" stroke-linejoin="round"/>
</g>
<defs>
<filter id="filter0_d_204_3743" x="0.905273" y="0.904297" width="216.189" height="193.137" filterUnits="userSpaceOnUse" color-interpolation-filters="sRGB">
<feFlood flood-opacity="0" result="BackgroundImageFix"/>
<feColorMatrix in="SourceAlpha" type="matrix" values="0 0 0 0 0 0 0 0 0 0 0 0 0 0 0 0 0 0 127 0" result="hardAlpha"/>
<feOffset dy="4"/>
<feGaussianBlur stdDeviation="2"/>
<feComposite in2="hardAlpha" operator="out"/>
<feColorMatrix type="matrix" values="0 0 0 0 0 0 0 0 0 0 0 0 0 0 0 0 0 0 0.25 0"/>
<feBlend mode="normal" in2="BackgroundImageFix" result="effect1_dropShadow_204_3743"/>
<feBlend mode="normal" in="SourceGraphic" in2="effect1_dropShadow_204_3743" result="shape"/>
</filter>
</defs>
</svg>
